<svg width="24" height="24" viewBox="0 0 24 24" fill="none" xmlns="http://www.w3.org/2000/svg">
<path d="M8.24863 12.6469L16.6768 20.0625C16.7742 20.1488 16.8923 20.2082 17.0196 20.2349C17.1469 20.2617 17.279 20.2549 17.4029 20.2152C17.5268 20.1754 17.6382 20.1042 17.7262 20.0084C17.8142 19.9126 17.8758 19.7956 17.9049 19.6688L21.4299 4.27503C21.4594 4.14246 21.4524 4.00435 21.4096 3.87544C21.3668 3.74654 21.2898 3.63168 21.1868 3.54312C21.0838 3.45457 20.9587 3.39565 20.8249 3.37265C20.691 3.34965 20.5534 3.36343 20.4268 3.41253L3.12051 10.2094C2.42676 10.4813 2.52051 11.4938 3.25176 11.6438L8.24863 12.6469Z" stroke="#117EFF" stroke-linecap="round" stroke-linejoin="round"/>
<path d="M8.25 12.6468L21.0094 3.43115" stroke="#117EFF" stroke-linecap="round" stroke-linejoin="round"/>
<path d="M12.4594 16.3501L9.53437 19.2751C9.43002 19.3811 9.29653 19.4536 9.15085 19.4835C9.00517 19.5134 8.85388 19.4994 8.71622 19.4431C8.57856 19.3868 8.46073 19.2909 8.37772 19.1675C8.2947 19.0441 8.25025 18.8988 8.25 18.7501V12.647" stroke="#117EFF" stroke-linecap="round" stroke-linejoin="round"/>
</svg>
