<svg width="43" height="43" viewBox="0 0 43 43" fill="none" xmlns="http://www.w3.org/2000/svg">
<path d="M34.5452 32.6431C34.67 32.7679 34.7691 32.9161 34.8367 33.0792C34.9042 33.2424 34.939 33.4172 34.939 33.5938C34.939 33.7703 34.9042 33.9452 34.8367 34.1083C34.7691 34.2714 34.67 34.4196 34.5452 34.5445C34.4204 34.6693 34.2721 34.7684 34.109 34.8359C33.9459 34.9035 33.7711 34.9383 33.5945 34.9383C33.4179 34.9383 33.2431 34.9035 33.08 34.8359C32.9169 34.7684 32.7686 34.6693 32.6438 34.5445L21.5007 23.3997L10.3577 34.5445C10.1056 34.7966 9.76358 34.9383 9.407 34.9383C9.05041 34.9383 8.70844 34.7966 8.45629 34.5445C8.20415 34.2923 8.0625 33.9503 8.0625 33.5938C8.0625 33.2372 8.20415 32.8952 8.45629 32.6431L19.601 21.5L8.45629 10.357C8.20415 10.1048 8.0625 9.76285 8.0625 9.40626C8.0625 9.04968 8.20415 8.7077 8.45629 8.45556C8.70844 8.20342 9.05041 8.06177 9.407 8.06177C9.76358 8.06177 10.1056 8.20342 10.3577 8.45556L21.5007 19.6003L32.6438 8.45556C32.8959 8.20342 33.2379 8.06177 33.5945 8.06177C33.9511 8.06177 34.2931 8.20342 34.5452 8.45556C34.7973 8.7077 34.939 9.04968 34.939 9.40626C34.939 9.76285 34.7973 10.1048 34.5452 10.357L23.4005 21.5L34.5452 32.6431Z" fill="black"/>
</svg>
