<svg width="24" height="24" viewBox="0 0 24 24" fill="none" xmlns="http://www.w3.org/2000/svg">
<mask id="mask0_282_4224" style="mask-type:luminance" maskUnits="userSpaceOnUse" x="2" y="2" width="20" height="20">
<path d="M12 3C16.9706 3 21 7.02944 21 12C21 16.9706 16.9706 21 12 21C7.02944 21 3 16.9706 3 12C3 7.02944 7.02944 3 12 3Z" stroke="white" stroke-width="2" stroke-linecap="round"/>
<path d="M10.2 10.2L17 7L13.8 13.8L7 17L10.2 10.2Z" fill="white"/>
<path d="M12 13C12.5523 13 13 12.5523 13 12C13 11.4477 12.5523 11 12 11C11.4477 11 11 11.4477 11 12C11 12.5523 11.4477 13 12 13Z" fill="black"/>
</mask>
<g mask="url(#mask0_282_4224)">
<path d="M24 0H0V24H24V0Z" fill="black"/>
</g>
</svg>
