<svg width="46" height="37" viewBox="0 0 46 37" fill="none" xmlns="http://www.w3.org/2000/svg">
<path d="M9.5 7.25C7.60156 7.25 6.125 5.77344 6.125 3.875C6.125 2.04688 7.60156 0.5 9.5 0.5C11.3281 0.5 12.875 2.04688 12.875 3.875C12.875 5.77344 11.3281 7.25 9.5 7.25ZM36.5 7.25C34.6016 7.25 33.125 5.77344 33.125 3.875C33.125 2.04688 34.6016 0.5 36.5 0.5C38.3281 0.5 39.875 2.04688 39.875 3.875C39.875 5.77344 38.3281 7.25 36.5 7.25ZM45.2891 33.4766C45.7812 34.6016 45.2188 35.9375 44.0234 36.3594C43.8125 36.5 43.5312 36.5 43.25 36.5C42.3359 36.5 41.4922 36.0078 41.1406 35.0938L39.1719 30.2422L39.3125 28.9766L42.1953 25.7422L45.2891 33.4766ZM42.8984 18.7109C43.25 20.1172 42.8281 21.5938 41.9141 22.6484L37.1328 27.9922L36.4297 34.5312C36.3594 35.6562 35.375 36.5 34.25 36.5C34.1094 36.5 34.0391 36.5 33.9688 36.5C32.7734 36.3594 31.8594 35.3047 32 34.0391L32.7031 27.5C32.7734 26.5859 33.1953 25.7422 33.7578 25.0391L36.8516 21.5938L35.5859 16.6719L35.0938 18.0781C34.8125 18.9922 34.25 19.7656 33.4062 20.3984L29.8203 22.6484C29.4688 22.8594 28.9766 23 28.625 23H17.375C16.9531 23 16.4609 22.8594 16.1094 22.6484L12.5234 20.3984C11.6797 19.7656 11.1172 18.9922 10.8359 18.0781L10.3438 16.6719L9.07812 21.5938L12.1719 25.0391C12.7344 25.7422 13.1562 26.5859 13.2266 27.5L13.9297 34.0391C14.0703 35.3047 13.2266 36.3594 11.9609 36.5C11.8906 36.5 11.8203 36.5 11.75 36.5C10.5547 36.5 9.64062 35.6562 9.5 34.5312L8.79688 27.9922L4.01562 22.6484C3.10156 21.5938 2.67969 20.1172 3.03125 18.7109L4.29688 13.0859C4.64844 11.6797 5.63281 10.4844 6.96875 9.92188C8.23438 9.35938 9.71094 9.42969 10.9062 10.1328C12.5234 11.0469 13.7188 12.5234 14.2812 14.2812L15.0547 16.6719L16.25 17.375V10.625C16.25 10.0625 16.7422 9.5 17.375 9.5H28.625C29.1875 9.5 29.75 10.0625 29.75 10.625V17.375L30.875 16.6719L31.6484 14.2812C32.2109 12.5234 33.4062 11.0469 35.0234 10.1328C36.2188 9.42969 37.6953 9.35938 38.9609 9.92188C40.2969 10.4844 41.2812 11.6797 41.6328 13.0859L42.8984 18.7109ZM3.73438 25.7422L6.61719 28.9766L6.75781 30.2422L4.78906 35.0938C4.36719 36.2188 3.03125 36.8516 1.90625 36.3594C0.710938 35.9375 0.148438 34.6016 0.640625 33.4766L3.73438 25.7422Z" fill="#11B503"/>
</svg>
